<?xml version="1.0" standalone="no"?>
<!DOCTYPE svg PUBLIC "-//W3C//DTD SVG 20010904//EN"
 "http://www.w3.org/TR/2001/REC-SVG-20010904/DTD/svg10.dtd">
<svg version="1.0" xmlns="http://www.w3.org/2000/svg"
 width="480.000000pt" height="270.000000pt" viewBox="0 0 480.000000 270.000000"
 preserveAspectRatio="xMidYMid meet">

<g transform="translate(0.000000,270.000000) scale(0.100000,-0.100000)"
fill="#000000" stroke="none">
<path d="M0 1350 l0 -1350 2400 0 2400 0 0 1350 0 1350 -2400 0 -2400 0 0
-1350z m2218 1051 c1 -32 -2 -40 -19 -44 -12 -3 -18 -10 -15 -16 4 -6 13 -8
21 -5 16 6 48 -20 38 -30 -10 -10 -45 -7 -38 4 3 6 1 10 -4 10 -6 0 -11 -6
-11 -12 0 -9 -3 -9 -9 1 -7 11 -13 12 -23 4 -11 -9 -43 -11 -68 -4 -2 0 5 8
17 16 12 8 28 12 36 9 18 -6 32 12 17 21 -7 4 -3 17 10 35 11 15 20 33 20 39
0 6 6 11 13 11 9 0 14 -14 15 -39z m-82 -1 c0 -11 -5 -20 -11 -20 -6 0 -11 9
-11 20 0 11 5 20 11 20 6 0 11 -9 11 -20z m-76 -38 c0 -13 -12 -22 -22 -16
-10 6 -1 24 13 24 5 0 9 -4 9 -8z m318 -40 c2 -7 -3 -12 -12 -12 -9 0 -16 7
-16 16 0 17 22 14 28 -4z m107 9 c30 11 35 11 29 -5 -3 -8 -12 -12 -19 -10 -7
3 -23 1 -34 -6 -18 -9 -21 -8 -21 11 0 16 3 19 13 11 7 -5 21 -6 32 -1z m-550
-11 c-3 -5 -12 -10 -18 -10 -7 0 -6 4 3 10 19 12 23 12 15 0z m114 -5 c12 4
21 2 21 -4 0 -10 -14 -15 -34 -12 -4 1 -13 -5 -20 -13 -13 -16 -62 -4 -51 13
3 6 12 8 20 5 9 -4 18 1 21 11 5 12 9 13 14 5 4 -7 16 -9 29 -5z m-109 -40 c0
-8 -7 -15 -16 -15 -14 0 -14 3 -4 15 7 8 14 15 16 15 2 0 4 -7 4 -15z m234
-20 c-5 -11 0 -12 25 -5 24 7 31 6 31 -6 0 -8 -10 -14 -25 -14 -14 0 -25 -5
-25 -11 0 -5 -4 -7 -10 -4 -13 8 -13 55 0 55 5 0 7 -7 4 -15z m-342 -47 c-7
-7 -12 -8 -12 -2 0 6 3 14 7 17 3 4 9 5 12 2 2 -3 -1 -11 -7 -17z m52 6 c23
-9 19 -27 -8 -40 -20 -9 -26 -9 -31 3 -3 9 0 22 6 29 13 16 12 16 33 8z m51
-4 c3 -5 1 -10 -4 -10 -6 0 -11 5 -11 10 0 6 2 10 4 10 3 0 8 -4 11 -10z m105
0 c0 -5 -5 -10 -11 -10 -5 0 -7 5 -4 10 3 6 8 10 11 10 2 0 4 -4 4 -10z m490
0 c0 -5 -7 -10 -16 -10 -8 0 -12 5 -9 10 3 6 10 10 16 10 5 0 9 -4 9 -10z
m-700 -38 c0 -4 -5 -13 -12 -20 -7 -7 -16 -12 -20 -12 -13 0 -9 28 5 33 19 8
27 8 27 -1z m230 -6 c0 -8 6 -17 13 -19 6 -3 -8 -6 -33 -6 -25 -1 -40 -5 -33
-9 8 -5 4 -16 -13 -35 l-24 -28 0 45 c0 46 16 69 31 45 6 -9 9 -10 9 -2 0 10
15 18 43 22 4 0 7 -5 7 -13z m126 -33 c-4 -9 -1 -20 6 -25 9 -5 6 -8 -9 -8
-12 0 -24 -6 -26 -12 -3 -7 -6 -2 -6 11 -1 13 7 30 17 37 23 18 25 17 18 -3z
m-251 -2 c3 -5 1 -12 -5 -16 -5 -3 -10 1 -10 9 0 18 6 21 15 7z m400 0 c3 -5
1 -12 -5 -16 -5 -3 -10 1 -10 9 0 18 6 21 15 7z m-502 -24 c4 3 7 1 7 -5 0 -6
-9 -16 -20 -22 -18 -9 -20 -8 -20 16 0 21 3 24 13 15 8 -6 17 -8 20 -4z m597
3 c0 -5 -2 -10 -4 -10 -3 0 -8 5 -11 10 -3 6 -1 10 4 10 6 0 11 -4 11 -10z
m30 6 c0 -3 -4 -8 -10 -11 -5 -3 -10 -1 -10 4 0 6 5 11 10 11 6 0 10 -2 10 -4z
m-718 -88 c-7 -7 -12 -8 -12 -2 0 6 3 14 7 17 3 4 9 5 12 2 2 -3 -1 -11 -7
-17z m168 -34 c0 -9 -5 -10 -25 -1 -24 11 -33 36 -19 50 9 8 44 -32 44 -49z
m-79 13 c-13 -13 -26 -3 -16 12 3 6 11 8 17 5 6 -4 6 -10 -1 -17z m139 13 c8
-5 11 -10 5 -11 -45 -7 -53 -5 -48 7 6 16 22 18 43 4z m90 -5 c-7 -9 -15 -13
-17 -11 -7 7 7 26 19 26 6 0 6 -6 -2 -15z m60 -15 c0 -5 -2 -10 -4 -10 -3 0
-8 5 -11 10 -3 6 -1 10 4 10 6 0 11 -4 11 -10z m-334 -10 c8 0 14 -7 14 -15 0
-8 -4 -15 -10 -15 -5 0 -10 5 -10 10 0 6 -7 10 -15 10 -11 0 -15 -12 -16 -42
l-1 -43 -9 40 c-11 47 -5 69 17 61 9 -3 22 -6 30 -6z m-66 -54 c0 -3 -4 -8
-10 -11 -5 -3 -10 -1 -10 4 0 6 5 11 10 11 6 0 10 -2 10 -4z m10 -106 c0 -5
-7 -10 -15 -10 -8 0 -15 5 -15 10 0 6 7 10 15 10 8 0 15 -4 15 -10z m315 -130
c3 -5 -1 -10 -10 -10 -9 0 -13 5 -10 10 3 6 8 10 10 10 2 0 7 -4 10 -10z m155
0 c0 -5 -5 -10 -11 -10 -5 0 -7 5 -4 10 3 6 8 10 11 10 2 0 4 -4 4 -10z m-210
-24 c0 -2 -7 -17 -15 -32 l-15 -29 0 26 c0 14 3 29 7 32 7 8 23 9 23 3z m240
-25 c0 -30 -17 -34 -22 -6 -4 17 -1 25 8 25 8 0 14 -9 14 -19z m-367 -6 c-2
-5 -14 -11 -28 -12 -25 -2 -32 7 -18 21 10 10 48 3 46 -9z m-1453 -101 c0 -8
-5 -12 -10 -9 -6 4 -8 11 -5 16 9 14 15 11 15 -7z m40 12 c0 -3 -4 -8 -10 -11
-5 -3 -10 -1 -10 4 0 6 5 11 10 11 6 0 10 -2 10 -4z m-85 -26 c-3 -5 -10 -10
-16 -10 -5 0 -9 5 -9 10 0 6 7 10 16 10 8 0 12 -4 9 -10z m1345 -60 c0 -5 -4
-10 -10 -10 -5 0 -10 5 -10 10 0 6 5 10 10 10 6 0 10 -4 10 -10z m2025 -110
c-3 -5 -10 -10 -16 -10 -5 0 -9 5 -9 10 0 6 7 10 16 10 8 0 12 -4 9 -10z
m-1444 -23 c-1 -12 -15 -9 -19 4 -3 6 1 10 8 8 6 -3 11 -8 11 -12z m-461 -27
c0 -5 -7 -10 -15 -10 -8 0 -15 5 -15 10 0 6 7 10 15 10 8 0 15 -4 15 -10z m80
0 c0 -5 -4 -10 -10 -10 -5 0 -10 5 -10 10 0 6 5 10 10 10 6 0 10 -4 10 -10z
m325 0 c3 -5 1 -10 -4 -10 -6 0 -11 5 -11 10 0 6 2 10 4 10 3 0 8 -4 11 -10z
m-275 -80 c0 -5 -4 -10 -10 -10 -5 0 -10 5 -10 10 0 6 5 10 10 10 6 0 10 -4
10 -10z m261 -23 c-11 -11 -51 0 -51 13 0 5 6 7 14 4 8 -3 17 0 21 6 6 9 10 9
16 -1 4 -8 4 -18 0 -22z m129 13 c0 -18 -3 -19 -20 -10 -11 6 -20 15 -20 20 0
6 9 10 20 10 13 0 20 -7 20 -20z m-287 -10 c-3 -12 -8 -19 -11 -16 -5 6 5 36
12 36 2 0 2 -9 -1 -20z m95 -12 c-6 -18 -25 -20 -31 -3 -5 10 0 15 14 15 12 0
19 -5 17 -12z m-408 -23 c0 -8 -4 -15 -10 -15 -5 0 -10 7 -10 15 0 8 5 15 10
15 6 0 10 -7 10 -15z m-41 -21 c-17 -21 -31 -17 -19 6 6 11 15 18 21 14 6 -4
6 -11 -2 -20z m611 6 c0 -5 -2 -10 -4 -10 -3 0 -8 5 -11 10 -3 6 -1 10 4 10 6
0 11 -4 11 -10z m0 -34 c0 -8 -4 -17 -8 -20 -13 -8 -35 11 -28 23 10 16 36 14
36 -3z m-605 -36 c3 -5 1 -10 -4 -10 -6 0 -11 5 -11 10 0 6 2 10 4 10 3 0 8
-4 11 -10z m412 -77 c1 -24 0 -25 -6 -8 -7 17 -6 35 2 35 2 0 3 -12 4 -27z
m99 -10 c-10 -10 -19 5 -10 18 6 11 8 11 12 0 2 -7 1 -15 -2 -18z m-46 -7 c0
-3 -4 -8 -10 -11 -5 -3 -10 -1 -10 4 0 6 5 11 10 11 6 0 10 -2 10 -4z m6 -118
c-2 -18 -7 -32 -12 -30 -5 2 -8 11 -6 20 9 50 24 58 18 10z m31 0 c-3 -7 -5
-2 -5 12 0 14 2 19 5 13 2 -7 2 -19 0 -25z m98 11 c10 -15 -3 -56 -19 -62 -11
-5 -15 3 -14 34 0 38 18 53 33 28z m-161 -8 c3 -5 0 -11 -8 -14 -8 -3 -17 1
-20 9 -6 15 19 20 28 5z m116 -71 c0 -5 -4 -10 -10 -10 -5 0 -10 5 -10 10 0 6
5 10 10 10 6 0 10 -4 10 -10z m-255 -60 c3 -5 1 -10 -4 -10 -6 0 -11 5 -11 10
0 6 2 10 4 10 3 0 8 -4 11 -10z"/>
</g>
</svg>
