<?xml version="1.0" standalone="no"?>
<!DOCTYPE svg PUBLIC "-//W3C//DTD SVG 20010904//EN"
 "http://www.w3.org/TR/2001/REC-SVG-20010904/DTD/svg10.dtd">
<svg version="1.0" xmlns="http://www.w3.org/2000/svg"
 width="1200.000000pt" height="628.000000pt" viewBox="0 0 1200.000000 628.000000"
 preserveAspectRatio="xMidYMid meet">

<g transform="translate(0.000000,628.000000) scale(0.100000,-0.100000)"
fill="#000000" stroke="none">
<path d="M4050 5813 l0 -466 -2025 7 -2025 6 0 -2680 0 -2680 6000 0 6000 0 0
230 0 230 -1574 0 -1574 0 -1 -107 c-1 -58 -4 -110 -7 -115 -3 -4 -399 -8
-880 -8 l-874 0 0 465 0 465 1885 0 1885 0 0 115 0 115 570 0 570 0 0 2445 0
2445 -3975 0 -3975 0 0 -467z m2810 -2123 l0 -260 53 29 c102 57 231 70 312
31 50 -24 101 -86 115 -141 6 -22 9 -154 8 -316 l-3 -278 -45 0 c-87 -1 -80
-26 -80 274 0 257 -1 268 -22 311 -51 98 -130 112 -258 44 l-75 -39 -3 -290
c-1 -174 -6 -291 -12 -295 -8 -5 -82 -6 -112 -1 -5 0 -8 261 -8 579 l0 578 48
16 c89 30 82 52 82 -242z m-3199 191 c59 -22 96 -56 123 -108 13 -27 16 -70
16 -259 0 -225 0 -228 -25 -270 -15 -26 -43 -54 -69 -69 -44 -26 -47 -26 -288
-29 -222 -3 -246 -5 -283 -23 -100 -52 -135 -120 -143 -275 l-5 -108 -83 0
c-93 0 -127 10 -167 48 -39 36 -63 86 -81 166 -28 119 -30 192 -8 299 33 157
88 225 201 247 30 5 170 10 313 10 l259 0 -3 23 c-3 22 -4 22 -188 23 l-185 0
0 115 c0 136 13 163 97 199 78 33 127 39 303 36 135 -3 169 -7 216 -25z m5539
-111 c0 -5 -11 -10 -25 -10 -24 0 -25 -2 -25 -70 0 -90 -18 -92 -22 -2 -3 61
-5 67 -25 70 -47 7 -21 22 37 22 33 0 60 -4 60 -10z m67 -46 c8 -27 18 -53 23
-57 4 -5 17 18 27 50 27 80 47 78 51 -6 3 -74 -3 -104 -18 -81 -6 8 -10 33
-10 55 l-1 40 -17 -49 c-22 -66 -39 -69 -54 -12 -15 59 -28 59 -28 1 0 -25 -4
-45 -10 -45 -11 0 -14 143 -3 154 14 14 27 -2 40 -50z m-2827 -89 l0 -125 70
0 70 0 0 -40 0 -40 -70 0 -70 0 0 -259 c0 -163 4 -270 11 -290 13 -38 58 -64
122 -70 4 -1 7 -17 7 -37 l0 -37 -66 6 c-82 6 -148 44 -178 102 -19 37 -21 58
-23 285 -1 135 -2 257 -2 273 -1 25 -4 27 -41 27 l-40 0 0 40 0 40 40 0 40 0
1 83 c1 90 3 125 10 131 7 6 93 34 107 35 9 1 12 -30 12 -124z m-1309 -132
c96 -43 161 -153 180 -303 24 -205 -40 -364 -176 -431 -62 -30 -70 -32 -148
-26 -73 4 -112 16 -189 55 -4 2 -9 -95 -10 -215 -3 -212 -4 -218 -23 -215 -11
2 -33 10 -49 18 -16 8 -35 14 -43 14 -11 0 -13 87 -13 499 l0 500 35 29 c110
90 320 126 436 75z m2815 -2 c162 -72 243 -263 197 -468 -28 -125 -88 -209
-186 -260 -46 -25 -62 -28 -147 -28 -151 1 -228 47 -294 177 -105 210 -41 479
137 570 83 42 209 46 293 9z m775 13 c68 -20 114 -54 139 -104 19 -37 20 -59
20 -348 l0 -308 -57 2 c-32 1 -61 2 -65 3 -5 0 -8 126 -8 280 0 305 -4 331
-57 369 -61 43 -155 46 -239 8 l-54 -25 0 -48 c0 -26 -1 -168 -1 -315 0 -288
3 -276 -56 -272 -82 4 -73 -35 -73 322 0 363 -10 326 100 385 109 59 252 80
351 51z m-3139 -281 c3 -323 5 -331 75 -375 32 -19 51 -23 118 -23 70 0 87 4
133 29 l52 29 1 211 c0 116 0 255 -1 309 l-1 97 66 0 67 0 -4 -442 c-4 -400
-6 -448 -23 -493 -26 -71 -94 -134 -181 -168 -69 -28 -192 -51 -206 -38 -3 3
-10 23 -13 44 -7 36 -6 37 21 38 112 3 215 52 254 121 16 29 23 62 27 134 l6
95 -39 -15 c-65 -26 -165 -46 -229 -46 -117 0 -222 79 -245 183 -15 71 -13
554 3 564 16 11 78 31 99 32 15 1 17 -24 20 -286z m-1547 266 c73 -20 115 -73
146 -185 33 -120 36 -251 10 -347 -28 -103 -63 -170 -103 -199 -33 -23 -38
-23 -348 -28 -307 -5 -315 -6 -315 -25 0 -19 8 -20 188 -23 l187 -2 0 -93 c0
-110 -15 -146 -81 -194 -52 -37 -175 -73 -270 -78 -77 -5 -227 23 -285 53 -21
11 -52 33 -68 48 -52 52 -56 75 -56 307 0 205 1 216 23 258 13 24 43 58 66 74
l43 30 246 3 c235 4 248 5 293 27 100 51 139 133 139 292 l0 93 73 0 c39 0 90
-5 112 -11z"/>
<path d="M3190 3792 c-55 -17 -68 -86 -24 -121 32 -25 52 -26 81 -3 33 25 38
63 14 94 -22 27 -46 38 -71 30z"/>
<path d="M4880 3431 c-14 -4 -40 -16 -58 -25 l-32 -17 0 -249 0 -250 52 -26
c102 -52 207 -42 266 24 73 83 84 343 20 467 -34 64 -62 80 -146 82 -42 1 -88
-1 -102 -6z"/>
<path d="M7719 3417 c-85 -45 -114 -119 -113 -282 1 -89 5 -121 23 -168 31
-79 70 -121 125 -137 105 -29 196 20 236 128 28 74 35 225 15 302 -39 148
-168 219 -286 157z"/>
<path d="M3586 2571 c-10 -10 -18 -34 -18 -52 -2 -60 70 -91 112 -49 26 26 26
81 2 103 -25 23 -75 21 -96 -2z"/>
</g>
</svg>
